<?xml version="1.0" encoding="utf-8"?>
<!-- Generator: Adobe Illustrator 18.0.0, SVG Export Plug-In . SVG Version: 6.00 Build 0)  -->
<!DOCTYPE svg PUBLIC "-//W3C//DTD SVG 1.1//EN" "http://www.w3.org/Graphics/SVG/1.1/DTD/svg11.dtd">
<svg version="1.1" id="Calque_1" xmlns="http://www.w3.org/2000/svg" xmlns:xlink="http://www.w3.org/1999/xlink" x="0px" y="0px"
	 viewBox="0 5.3 60.4 60.2" enable-background="new 0 5.3 60.4 60.2" xml:space="preserve">
<g fill="#ffffff">
	<path d="M46.3,34.3c-3.5-0.1-10.9,0.5-12.7-0.6c-1.4-0.8-1.8-6.5-1.8-6.5l-0.8,1.5l-0.6,0l-0.6,0l-0.8-1.5c0,0-0.4,5.7-1.8,6.4
		c-1.9,1-9.2,0.5-12.7,0.6c-2,0-6.8,0.7-7.6,4.7c0.5,0,1.8,0,2.2,0c1,0,1.2-2.9,4.4-2.9c3.4,0,14.4,0.4,15.2-0.2
		c1.4-1.2,1.8-4.5,1.8-4.5s0.4,3.3,1.8,4.5c0.8,0.6,11.9,0.2,15.2,0.2c3.2,0,3.3,2.9,4.4,2.9c0.4,0,1.7,0,2.2,0
		C53.1,35,48.2,34.3,46.3,34.3z"/>
	<path d="M30.3,65.5C13.7,65.5,0.2,52,0.2,35.4c0-16.6,13.5-30.1,30.1-30.1s30.1,13.5,30.1,30.1C60.4,52,46.9,65.5,30.3,65.5z
		 M30.3,7.3C14.8,7.3,2.2,19.9,2.2,35.4c0,15.5,12.6,28.1,28.1,28.1s28.1-12.6,28.1-28.1C58.4,19.9,45.8,7.3,30.3,7.3z"/>
</g>
</svg>
