<?xml version="1.0" standalone="no"?>
<!DOCTYPE svg PUBLIC "-//W3C//DTD SVG 20010904//EN"
 "http://www.w3.org/TR/2001/REC-SVG-20010904/DTD/svg10.dtd">
<svg version="1.0" xmlns="http://www.w3.org/2000/svg"
 width="700.000000pt" height="700.000000pt" viewBox="0 0 700.000000 700.000000"
 preserveAspectRatio="xMidYMid meet">
<metadata>
Created by potrace 1.11, written by Peter Selinger 2001-2013
</metadata>
<g transform="translate(0.000000,700.000000) scale(0.100000,-0.100000)"
fill="#000000" stroke="none">
<path d="M3308 6995 c-1 -1 -45 -6 -96 -9 -51 -4 -101 -9 -110 -11 -9 -1 -44
-6 -77 -10 -74 -8 -233 -39 -340 -66 -44 -11 -90 -22 -102 -25 -12 -2 -75 -22
-140 -43 -553 -181 -1023 -476 -1433 -897 -318 -327 -589 -746 -743 -1149
-104 -273 -190 -604 -213 -820 -3 -27 -7 -59 -9 -70 -17 -84 -24 -506 -11
-665 6 -78 32 -283 42 -335 75 -408 224 -820 407 -1128 26 -43 47 -81 47 -83
0 -20 212 -314 320 -445 80 -97 362 -373 465 -456 475 -381 1011 -627 1585
-728 19 -3 42 -8 50 -10 8 -2 40 -7 70 -11 30 -3 66 -8 80 -10 175 -25 638
-25 820 0 19 3 55 8 80 11 340 45 738 168 1064 332 1088 545 1820 1626 1924
2838 13 161 5 630 -13 720 -2 11 -7 40 -10 65 -3 25 -7 54 -9 65 -2 11 -11 61
-21 110 -124 662 -462 1306 -941 1790 -90 90 -122 120 -235 220 -65 58 -214
169 -324 243 -80 54 -330 202 -341 202 -2 0 -55 24 -117 54 -264 126 -489 198
-852 272 -48 10 -178 27 -295 40 -51 6 -516 14 -522 9z m473 -239 c47 -4 94
-8 105 -10 10 -2 44 -7 74 -10 102 -13 313 -57 434 -92 676 -194 1264 -593
1697 -1153 221 -287 392 -609 509 -961 34 -100 72 -236 84 -296 2 -10 14 -65
25 -122 12 -57 24 -129 27 -160 3 -30 7 -64 10 -75 24 -128 24 -592 -1 -767
-2 -14 -7 -47 -10 -75 -3 -27 -17 -104 -31 -170 -14 -66 -27 -131 -30 -145
-13 -65 -90 -307 -131 -410 -93 -233 -244 -518 -355 -670 -198 -269 -355 -443
-543 -605 -39 -33 -72 -62 -75 -65 -14 -14 -105 -83 -181 -138 -197 -141 -505
-305 -724 -387 -236 -88 -509 -157 -712 -181 -32 -3 -61 -8 -64 -10 -13 -7
-237 -18 -384 -18 -147 0 -321 9 -370 19 -11 2 -42 7 -70 10 -65 7 -227 35
-235 40 -4 2 -22 7 -41 10 -89 15 -330 90 -474 147 -122 49 -328 148 -414 200
-34 21 -65 38 -67 38 -2 0 -60 38 -128 84 -259 175 -449 344 -671 597 -97 111
-257 337 -342 484 -148 257 -299 634 -348 873 -2 9 -9 40 -15 67 -7 28 -14 64
-16 80 -3 17 -9 53 -15 80 -5 28 -12 73 -15 101 -2 28 -6 61 -9 72 -7 36 -18
243 -18 347 -1 97 10 335 17 372 2 10 7 45 11 77 60 528 308 1120 654 1566
372 480 880 855 1441 1063 92 34 298 97 370 113 19 4 37 8 40 9 23 6 121 25
143 29 15 3 53 9 85 15 68 12 138 20 247 27 44 3 81 7 82 8 5 5 351 -2 434 -8z"/>
<path d="M3359 4434 c-1 -20 -3 -37 -13 -128 -28 -252 -92 -484 -151 -553 -46
-54 -90 -72 -220 -89 -27 -3 -52 -8 -55 -9 -17 -10 -355 -18 -840 -20 -305 -1
-571 -5 -590 -9 -211 -44 -313 -81 -422 -152 -125 -81 -215 -196 -252 -323 -9
-30 -16 -55 -16 -56 0 -1 63 -2 139 -1 160 1 151 -4 237 113 98 133 158 178
269 208 53 14 115 15 505 9 916 -14 1277 -7 1366 26 58 22 145 193 184 361 32
138 38 157 39 134 2 -45 62 -258 90 -320 38 -83 96 -164 128 -176 68 -26 285
-34 803 -30 1112 8 1038 9 1108 -18 76 -29 151 -94 218 -189 84 -119 85 -120
257 -119 147 1 140 -10 80 117 -43 89 -154 206 -249 262 -99 57 -260 114 -384
134 -14 2 -41 7 -60 11 -19 4 -323 8 -675 9 -586 0 -691 3 -780 19 -170 30
-214 58 -261 164 -27 60 -67 204 -84 296 -5 33 -12 69 -14 80 -2 11 -7 49 -11
85 -5 36 -9 74 -11 85 -1 11 -3 35 -3 54 -1 46 -18 30 -61 -58 l-34 -71 -71 0
-72 0 -43 83 c-51 97 -50 96 -51 71z"/>
</g>
</svg>
